General
Complete name                    : D:Downloads╨á╤â╤é╤Ç╨╡╨║╨╡╤ÇAyumi Hamasaki - Swimsuit Special (Idol Promotional Model Video ).1995 [Rip by dmnfff00 for
Format                           : AVI
Format/Info                      : Audio Video Interleave
File size                        : 557 MiB
Duration                         : 29mn 59s
Overall bit rate                 : 2 599 Kbps
Movie name                       : Ayumi Hamasaki - Swimsuit Special (Idol Promotional Model Video ).1995
Director                         : Syunichi Kasai
Law rating                       : ╨╜╨╡ ╨┐╤Ç╨╛╤à╨╛╨┤╨╕╨╗╨╛ ╨╛╤å╨╡╨╜╨║╤â
Recorded date                    : 22.09.2012
Writing application              : VirtualDub build 32842/releaseLavf54.26.100
Original source form/Name        : ╤ä╨╕╨╗╤î╨╝
Copyright                        : Encoded by dmnfff000 for
Comment                          : Encoded by dmnfff000 for

Video
ID                               : 0
Format                           : MPEG-4 Visual
Format profile                   : Advanced Simple@L5
Format settings, BVOP            : No
Format settings, QPel            : No
Format settings, GMC             : No warppoints
Format settings, Matrix          : Default (MPEG)
Codec ID                         : XVID
Codec ID/Hint                    : XviD
Duration                         : 29mn 59s
Bit rate                         : 2 396 Kbps
Width                            : 640 pixels
Height                           : 480 pixels
Display aspect ratio             : 4:3
Frame rate                       : 29.970 fps
Color space                      : YUV
Chroma subsampling               : 4:2:0
Bit depth                        : 8 bits
Scan type                        : Progressive
Compression mode                 : Lossy
Bits/(Pixel*Frame)               : 0.260
Stream size                      : 514 MiB (92%)
Writing library                  : XviD 64

Audio
ID                               : 1
Format                           : MPEG Audio
Format version                   : Version 1
Format profile                   : Layer 3
Codec ID                         : 55
Codec ID/Hint                    : MP3
Duration                         : 29mn 59s
Bit rate mode                    : Constant
Bit rate                         : 192 Kbps
Channel(s)                       : 2 channels
Sampling rate                    : 48.0 KHz
Compression mode                 : Lossy
Stream size                      : 41.2 MiB (7%)
Alignment                        : Split accross interleaves
Interleave, duration             : 33 ms (1.00 video frame)
Interleave, preload duration     : 500 ms
Writing library                  : LAME3.99r
Encoding settings                : -m s -V 4 -q 2 -lowpass 18.6 -b 192
Language                         : /?

